HIERARCHY
ROOT Hips
{
	OFFSET 0.0000 0.0000 0.0000
	CHANNELS 6 Xposition Yposition Zposition Zrotation Xrotation Yrotation
	JOINT Ab
	{
		OFFSET -0.0000 8.1305 -0.0000
		CHANNELS 3 Zrotation Xrotation Yrotation
		JOINT Chest
		{
			OFFSET -0.0000 26.2902 -0.0000
			CHANNELS 3 Zrotation Xrotation Yrotation
			JOINT Neck
			{
				OFFSET -0.0000 26.2902 0.0000
				CHANNELS 3 Zrotation Xrotation Yrotation
				JOINT Head
				{
					OFFSET -0.0000 10.8167 0.0000
					CHANNELS 3 Zrotation Xrotation Yrotation
					End Site
					{
						OFFSET -0.0000 16.7167 0.0000
					}
				}
			}
			JOINT LeftCollar
			{
				OFFSET -0.0000 26.2902 0.0000
				CHANNELS 3 Zrotation Xrotation Yrotation
				JOINT LeftShoulder
				{
					OFFSET 19.6667 -0.0000 0.0000
					CHANNELS 3 Zrotation Xrotation Yrotation
					JOINT LeftElbow
					{
						OFFSET 27.2190 0.0000 0.0000
						CHANNELS 3 Zrotation Xrotation Yrotation
						JOINT LeftWrist
						{
							OFFSET 30.7431 0.0000 0.0000
							CHANNELS 3 Zrotation Xrotation Yrotation
							End Site
							{
								OFFSET 0.0000 -14.7500 0.0000
							}
						}
					}
				}
			}
			JOINT RightCollar
			{
				OFFSET -0.0000 26.2902 0.0000
				CHANNELS 3 Zrotation Xrotation Yrotation
				JOINT RightShoulder
				{
					OFFSET -19.6667 0.0000 0.0000
					CHANNELS 3 Zrotation Xrotation Yrotation
					JOINT RightElbow
					{
						OFFSET -27.2190 0.0000 0.0000
						CHANNELS 3 Zrotation Xrotation Yrotation
						JOINT RightWrist
						{
							OFFSET -30.7431 0.0000 0.0000
							CHANNELS 3 Zrotation Xrotation Yrotation
							End Site
							{
								OFFSET -0.0000 -14.7500 0.0000
							}
						}
					}
				}
			}
		}
	}
	JOINT LeftHip
	{
		OFFSET 11.8000 0.0000 0.0000
		CHANNELS 3 Zrotation Xrotation Yrotation
		JOINT LeftKnee
		{
			OFFSET -0.0000 -39.7832 0.0000
			CHANNELS 3 Zrotation Xrotation Yrotation
			JOINT LeftAnkle
			{
				OFFSET -0.0000 -41.7317 0.0000
				CHANNELS 3 Zrotation Xrotation Yrotation
				End Site
				{
					OFFSET -0.0000 -4.9167 16.7167
				}
			}
		}
	}
	JOINT RightHip
	{
		OFFSET -11.8000 0.0000 0.0000
		CHANNELS 3 Zrotation Xrotation Yrotation
		JOINT RightKnee
		{
			OFFSET -0.0000 -39.7832 0.0000
			CHANNELS 3 Zrotation Xrotation Yrotation
			JOINT RightAnkle
			{
				OFFSET -0.0000 -41.7317 0.0000
				CHANNELS 3 Zrotation Xrotation Yrotation
				End Site
				{
					OFFSET -0.0000 -4.9167 16.7167
				}
			}
		}
	}
}
MOTION
Frames: 19
Frame Time: 0.010000
-17.4651 96.9787 174.4407 358.7076 357.5284 181.2465 357.5987 347.9693 0.0074 3.2278 10.4359 359.9616 358.8066 359.3453 0.2265 356.5339 4.8014 0.3676 339.7510 357.3895 14.5329 316.8869 58.3149 341.0430 9.9795 357.0435 327.0467 88.7514 357.6911 346.8523 27.0909 355.8059 342.7823 45.9697 45.8143 3.8008 340.3308 354.5477 30.6216 270.6513 354.9305 10.8094 357.2665 3.4410 358.7889 357.8521 5.8539 5.0109 352.7708 351.7115 13.4397 358.8091 6.4836 12.3505 5.5859 5.1305 11.3737 349.8134 344.2939 312.3557 
-17.4778 96.9781 174.4280 358.7007 357.5126 181.2484 357.5928 347.9610 0.0052 3.2230 10.4543 359.9572 358.8126 359.3398 0.2139 356.5274 4.8158 0.3716 339.7555 357.3891 14.5274 316.8895 58.3301 341.0138 10.0286 357.0559 327.0614 88.8209 357.6577 346.9654 27.0946 355.8231 342.7667 45.9486 45.8335 3.8524 340.2955 354.5678 30.6084 270.7066 354.8822 10.6793 357.2504 3.4363 358.7834 357.8529 5.8448 5.0527 352.7512 351.7169 13.4071 358.7922 6.4759 12.3616 5.5917 5.1273 11.3291 349.7468 344.3305 312.3848 
-17.4890 96.9770 174.4160 358.6969 357.4981 181.2447 357.6015 347.9619 359.9966 3.1999 10.4594 359.9567 358.8020 359.3572 0.2192 356.5508 4.8029 0.3649 339.7682 357.3881 14.5324 316.8890 58.3384 340.9997 10.0228 357.0302 327.0728 88.8740 357.6625 346.9537 27.0951 355.8039 342.7787 45.9769 45.8502 3.8305 340.2458 354.5585 30.6056 270.7967 354.8616 10.5763 357.2387 3.4369 358.7761 357.8525 5.8333 5.0414 352.8440 351.7446 13.4606 358.7785 6.4572 12.3699 5.6031 5.1460 11.3127 349.7913 344.2929 312.3877 
-17.5006 96.9751 174.4081 358.6952 357.4754 181.2506 357.5968 347.9571 359.9916 3.2003 10.4698 359.9500 358.8109 359.3487 0.2186 356.5237 4.8226 0.3723 339.7695 357.3949 14.5335 316.8807 58.3255 340.9960 10.0065 357.0286 327.0719 88.8600 357.6511 346.9386 27.1055 355.8230 342.7908 45.9619 45.8263 3.8279 340.2839 354.5496 30.6305 270.7993 354.8733 10.6222 357.2276 3.4115 358.7757 357.8579 5.8493 5.0322 352.7830 351.7247 13.4505 358.7721 6.4342 12.3476 5.5998 5.1614 11.3239 349.7975 344.2847 312.4008 
-17.5110 96.9722 174.3954 358.6975 357.4691 181.2498 357.5976 347.9669 359.9900 3.2000 10.4777 359.9445 358.8301 359.3494 0.2147 356.4837 4.8359 0.3765 339.7686 357.4040 14.5295 316.8776 58.3222 340.9961 9.9980 357.0227 327.0670 88.9315 357.6581 346.9666 27.1103 355.8205 342.7936 45.9484 45.8519 3.8432 340.2550 354.5364 30.6287 270.8217 354.8723 10.5748 357.2264 3.4162 358.7708 357.8500 5.8430 5.0387 352.7396 351.7274 13.4772 358.7674 6.4331 12.3815 5.6071 5.1627 11.2738 349.7589 344.3086 312.4208 
-17.5224 96.9676 174.3824 358.7012 357.4602 181.2499 357.5918 347.9761 359.9930 3.2136 10.4814 359.9412 358.8247 359.3672 0.2186 356.4900 4.8270 0.3741 339.7758 357.3847 14.5187 316.8256 58.3492 341.0329 10.0650 357.0063 327.0758 88.8521 357.6517 346.9553 27.1082 355.8132 342.8001 45.9518 45.8545 3.8259 340.2619 354.5319 30.6411 270.7561 354.8786 10.5659 357.2242 3.4147 358.7756 357.8481 5.8466 5.0264 352.8165 351.7319 13.4834 358.7637 6.4229 12.3565 5.6109 5.1825 11.2934 349.7776 344.2765 312.4080 
-17.5347 96.9658 174.3714 358.7045 357.4436 181.2482 357.5866 347.9728 359.9921 3.2219 10.4977 359.9389 358.8342 359.3478 0.2144 356.4780 4.8643 0.3695 339.7624 357.3989 14.5230 316.8989 58.3384 340.9701 9.9825 357.0375 327.0705 88.9005 357.6511 346.9254 27.1151 355.8329 342.8025 45.9320 45.8261 3.8386 340.2955 354.5704 30.6514 270.7586 354.8645 10.6153 357.2084 3.3715 358.8004 357.8736 5.9104 5.0295 352.7680 351.6741 13.4035 358.7566 6.4020 12.3313 5.6212 5.2031 11.3014 349.7311 344.2821 312.4003 
-17.5486 96.9628 174.3632 358.7005 357.4255 181.2410 357.5819 347.9804 359.9927 3.2187 10.4917 359.9432 358.8202 359.3831 0.2128 356.5162 4.8426 0.3633 339.7624 357.3896 14.5189 316.9037 58.3574 340.9569 10.0313 357.0286 327.0859 88.8502 357.6298 346.9193 27.1185 355.8183 342.8034 45.9289 45.8553 3.8468 340.2678 354.5229 30.6361 270.7755 354.9043 10.5835 357.1833 3.3356 358.8051 357.8935 5.9571 5.0573 352.8513 351.6746 13.4031 358.7367 6.3857 12.3766 5.6321 5.2061 11.2870 349.7161 344.2909 312.3904 
-17.5633 96.9604 174.3530 358.7009 357.4091 181.2406 357.5738 347.9839 359.9913 3.2254 10.5023 359.9477 358.8321 359.3747 0.2083 356.5179 4.8608 0.3547 339.7437 357.3886 14.5003 316.9532 58.3602 340.9525 9.9978 357.0273 327.0663 88.8506 357.6357 346.9022 27.1151 355.8302 342.8085 45.9447 45.8197 3.8340 340.2751 354.5571 30.6503 270.8291 354.9046 10.5909 357.1744 3.3204 358.8077 357.8937 5.9693 5.0397 352.8181 351.6590 13.4122 358.7263 6.3611 12.3042 5.6355 5.2369 11.3071 349.7388 344.2670 312.4300 
-17.5765 96.9574 174.3437 358.7046 357.3876 181.2339 357.5692 347.9792 359.9991 3.2307 10.5158 359.9487 358.8533 359.3698 0.1962 356.4949 4.8830 0.3552 339.7431 357.4030 14.4973 316.9721 58.3548 340.9235 10.0154 357.0442 327.0725 88.7478 357.6067 346.8485 27.1130 355.8265 342.8125 45.9453 45.8342 3.8310 340.2542 354.5437 30.6784 270.9835 354.8434 10.2607 357.1705 3.3024 358.8124 357.8945 5.9756 5.0114 352.7777 351.6248 13.4071 358.7161 6.3364 12.3172 5.6480 5.2507 11.3058 349.7762 344.2226 312.4249 
-17.5911 96.9545 174.3336 358.7034 357.3714 181.2310 357.5634 347.9820 359.9986 3.2285 10.5278 359.9521 358.8889 359.3624 0.1900 356.4687 4.9112 0.3491 339.8404 357.3994 14.5310 316.8444 58.5637 340.7982 10.2709 356.9519 327.3227 88.6231 357.5151 346.9060 27.1094 355.8400 342.8030 45.9469 45.8431 3.8489 340.2509 354.5442 30.6853 271.0555 354.8254 10.1589 357.1601 3.2881 358.8073 357.8891 5.9864 5.0198 352.8086 351.6244 13.4201 358.7042 6.3213 12.2916 5.6547 5.2595 11.2950 349.7989 344.2031 312.4487 
-17.6056 96.9516 174.3250 358.7068 357.3560 181.2260 357.5568 347.9886 0.0029 3.2356 10.5377 359.9596 358.9877 359.2994 0.1964 356.3223 5.0415 0.3530 339.9164 357.4161 14.5630 316.7298 58.7207 340.6993 10.4326 356.9158 327.5340 88.5349 357.4478 346.9577 27.0950 355.8324 342.7935 45.9541 45.8878 3.8720 340.1997 354.5187 30.6727 271.1740 354.7895 9.9762 357.1539 3.2712 358.8046 357.8887 6.0008 5.0242 352.7788 351.6013 13.3894 358.6938 6.3045 12.3067 5.6687 5.2675 11.2763 349.8300 344.1734 312.4498 
-17.6216 96.9486 174.3136 358.7087 357.3451 181.2154 357.5499 347.9960 0.0107 3.2406 10.5477 359.9694 359.1614 359.2055 0.2001 356.0567 5.2395 0.3819 339.9045 357.4188 14.5627 316.7701 58.7099 340.6752 10.4377 356.9453 327.5177 88.5441 357.4676 346.9851 27.0908 355.8247 342.7861 45.9474 45.9209 3.8769 340.1826 354.5273 30.6807 271.3242 354.7105 9.7502 357.1477 3.2730 358.8102 357.8843 5.9954 4.9979 352.7636 351.5941 13.4080 358.6810 6.2899 12.2906 5.6766 5.2849 11.2860 349.8021 344.1810 312.4648 
-17.6360 96.9447 174.3053 358.7149 357.3217 181.2153 357.5392 347.9974 0.0146 3.2584 10.5515 359.9692 359.1761 359.2075 0.1876 356.0414 5.2660 0.3735 339.9097 357.3867 14.5582 316.7509 58.7390 340.6861 10.5153 356.9302 327.5181 88.5997 357.4693 347.0809 27.0803 355.8080 342.7748 45.9577 45.9284 3.8742 340.1936 354.5222 30.6770 271.2664 354.7369 9.8445 357.1457 3.2506 358.8007 357.8804 6.0028 5.0000 352.8365 351.5920 13.4128 358.6754 6.2549 12.2520 5.6793 5.3241 11.3436 349.7916 344.1693 312.4596 
-17.6535 96.9421 174.2978 358.7144 357.3055 181.2128 357.5327 348.0044 0.0206 3.2599 10.5605 359.9712 359.0761 359.3067 0.1658 356.2456 5.1153 0.3494 339.8961 357.4124 14.5849 316.8787 58.7453 340.5602 10.4259 356.9549 327.4869 89.0161 357.5244 347.3015 27.0850 355.8287 342.7783 45.9603 45.9129 3.8603 340.2394 354.5169 30.6964 271.2589 354.7430 9.9099 357.1327 3.2367 358.8017 357.8818 6.0068 5.0052 352.8485 351.5931 13.4035 358.6575 6.2360 12.2678 5.6948 5.3343 11.2980 349.7525 344.1883 312.4896 
-17.6743 96.9401 174.2894 358.7122 357.2862 181.2133 357.5219 348.0023 0.0248 3.2653 10.5789 359.9764 359.1097 359.3007 0.1662 356.2180 5.1432 0.3315 339.9018 357.4040 14.5750 316.8564 58.7480 340.5685 10.4901 356.9435 327.4845 88.9964 357.5237 347.3273 27.0716 355.8218 342.7685 45.9734 45.9241 3.8833 340.1964 354.5081 30.6791 271.3251 354.6963 9.8364 357.1148 3.2205 358.7857 357.8824 6.0129 5.0229 352.8268 351.5852 13.4082 358.6354 6.2119 12.2439 5.7142 5.3526 11.2982 349.7215 344.1947 312.4971 
-17.6920 96.9362 174.2836 358.7169 357.2651 181.2116 357.5222 348.0049 0.0258 3.2672 10.5912 359.9787 359.2650 359.1899 0.1778 355.9654 5.3618 0.3554 339.8942 357.4095 14.5701 316.8777 58.7136 340.5520 10.4652 356.9505 327.4749 88.9859 357.5210 347.2898 27.0787 355.8357 342.7570 45.9514 45.9298 3.9117 340.1964 354.5098 30.6870 271.4033 354.6623 9.7333 357.1104 3.2007 358.8009 357.8779 6.0172 5.0223 352.7837 351.5868 13.4034 358.6244 6.1740 12.2215 5.7262 5.3929 11.3089 349.6864 344.1952 312.5084 
-17.7108 96.9322 174.2800 358.7238 357.2344 181.2170 357.5240 348.0044 0.0280 3.2736 10.5920 359.9749 359.2515 359.2123 0.1743 355.9841 5.3631 0.3463 339.8898 357.3981 14.5733 316.8797 58.7066 340.5397 10.4898 356.9363 327.4728 89.0039 357.5320 347.3141 27.0746 355.8168 342.7570 45.9544 45.9464 3.9158 340.1555 354.4999 30.6697 271.4248 354.6527 9.7485 357.1093 3.1701 358.7942 357.8681 6.0219 5.0056 352.8753 351.5855 13.3899 358.6128 6.1301 12.2113 5.7457 5.4181 11.3078 349.6916 344.1786 312.5048 
-17.7330 96.9290 174.2745 358.7254 357.2081 181.2208 357.5198 348.0014 0.0308 3.2776 10.6049 359.9784 359.2906 359.2098 0.1625 355.9291 5.3953 0.3469 339.8838 357.3913 14.5564 316.8747 58.6939 340.5627 10.4717 356.9299 327.4551 89.0180 357.5421 347.3009 27.0700 355.8208 342.7551 45.9690 45.9212 3.9059 340.1731 354.5177 30.6813 271.3841 354.7086 9.8579 357.1010 3.1436 358.7959 357.8592 6.0281 4.9849 352.9029 351.5809 13.4007 358.5914 6.0864 12.1969 5.7731 5.4569 11.2921 349.7019 344.1470 312.5142 
